<svg width="33" height="32" viewBox="0 0 33 32" fill="none" xmlns="http://www.w3.org/2000/svg">
<path d="M28.5 18.4995C27.2465 17.5579 25.6884 17 24 17C19.8579 17 16.5 20.3579 16.5 24.5C16.5 26.6731 17.4242 28.6303 18.9009 30H5.5C4.94772 30 4.5 29.5523 4.5 29V3C4.5 2.44772 4.94772 2 5.5 2H27.5C28.0523 2 28.5 2.44772 28.5 3V18.4995ZM9.5 12H23.5V10H9.5V12ZM9.5 17H19.5V15H9.5V17ZM23.2405 25.3084V27.5584H24.7405V25.3084H26.9905V23.8084H24.7405V21.5584H23.2405V23.8084H20.9905V25.3084H23.2405ZM24 30C20.9624 30 18.5 27.5376 18.5 24.5C18.5 21.4624 20.9624 19 24 19C27.0376 19 29.5 21.4624 29.5 24.5C29.5 27.5376 27.0376 30 24 30Z" fill="white"/>
</svg>
