<svg width="305" height="305" viewBox="0 0 305 305" fill="none" xmlns="http://www.w3.org/2000/svg">
<g clip-path="url(#clip0_5_109)">
<g opacity="0.41">
<path d="M4.62504 189.74C4.08482 184.696 3.96503 179.615 4.26692 174.551C5.70604 150.769 16.4497 127.851 33.1091 111.2C39.0778 105.259 45.8888 99.8504 49.5695 92.2289C55.7703 79.398 54.5368 65.1184 62.389 52.3273C70.2682 39.4951 81.9518 29.4499 95.8071 23.5955C136.613 6.66468 195.949 27.5823 193.296 79.0192C193.296 79.2052 193.296 79.471 193.296 79.8099C193.237 82.3054 193.684 84.787 194.61 87.1044C195.536 89.4219 196.922 91.527 198.683 93.2924C200.444 95.0578 202.545 96.4468 204.857 97.3753C207.17 98.3038 209.647 98.7525 212.137 98.6943C250.503 97.5846 285.002 126.057 293.975 163.972C299.738 188.352 293.657 215.735 276.918 234.094C264.423 247.789 247.141 255.869 229.745 261.716C194.861 273.438 157.736 277.478 121.075 275.67C86.7148 273.943 50.1995 265.789 26.7822 240.121C14.2877 226.413 6.62125 208.386 4.62504 189.74Z" fill="#E1E2FE"/>
</g>
<g opacity="0.31">
<path d="M197.025 20.2103C197.122 15.3331 193.335 11.3019 188.566 11.2064C183.797 11.1108 179.853 14.9871 179.755 19.8642C179.658 24.7413 183.445 28.7725 188.214 28.8681C192.983 28.9636 196.927 25.0874 197.025 20.2103Z" fill="#E1E2FE"/>
</g>
<g opacity="0.31">
<path d="M42.281 20.3329C42.3447 21.2093 42.6651 22.0474 43.2021 22.7422C43.739 23.437 44.4686 23.9576 45.2995 24.2388C46.1304 24.5201 47.0256 24.5495 47.8731 24.3233C48.7206 24.0971 49.4826 23.6254 50.0637 22.9672C50.6449 22.3091 51.0193 21.4938 51.1401 20.6235C51.2608 19.7531 51.1226 18.8664 50.7428 18.0744C50.3629 17.2824 49.7582 16.6203 49.0045 16.171C48.2508 15.7217 47.3815 15.5052 46.5055 15.5487C45.9138 15.5825 45.3346 15.7334 44.8013 15.9926C44.2681 16.2519 43.7914 16.6143 43.3986 17.0591C43.0059 17.5038 42.7049 18.0221 42.5131 18.584C42.3213 19.1459 42.2424 19.7403 42.281 20.3329Z" fill="#E1E2FE"/>
</g>
<g opacity="0.31">
<path d="M298.604 123.326C298.647 123.907 298.859 124.462 299.215 124.922C299.571 125.382 300.055 125.726 300.605 125.912C301.156 126.098 301.749 126.117 302.31 125.966C302.871 125.816 303.376 125.503 303.76 125.066C304.145 124.63 304.392 124.09 304.471 123.513C304.55 122.936 304.458 122.349 304.206 121.825C303.953 121.301 303.552 120.863 303.052 120.566C302.552 120.269 301.976 120.127 301.396 120.157C301.004 120.179 300.621 120.278 300.268 120.45C299.914 120.622 299.599 120.862 299.339 121.157C299.079 121.452 298.881 121.795 298.755 122.168C298.628 122.54 298.577 122.934 298.604 123.326Z" fill="#E1E2FE"/>
</g>
<g opacity="0.31">
<path d="M284.86 275.404C285.02 267.725 279.065 261.372 271.558 261.214C264.051 261.057 257.835 267.154 257.675 274.834C257.514 282.513 263.47 288.866 270.976 289.023C278.483 289.181 284.699 283.083 284.86 275.404Z" fill="#E1E2FE"/>
</g>
<path opacity="0.47" d="M2.57579 53.5699C0.526442 49.9656 -0.0366897 45.7019 1.00644 41.6876C2.04957 37.6733 4.61645 34.2261 8.15985 32.0808C15.5014 27.7218 29.9987 27.2434 34.2564 34.7387C38.5141 42.2339 27.2398 49.49 22.8694 56.9321C16.7681 67.3112 6.82684 61.0718 2.57579 53.5699Z" fill="#ECF1F7"/>
<path opacity="0.47" d="M47.3611 288.82C46.1124 289.744 44.6913 290.408 43.182 290.772C41.6727 291.137 40.1058 291.194 38.5741 290.94C37.0424 290.687 35.577 290.128 34.2646 289.297C32.9523 288.466 31.8197 287.38 30.9338 286.102C27.1337 280.707 25.688 269.437 30.9338 265.544C36.1797 261.65 42.4402 269.896 48.316 272.733C56.5462 276.693 52.6401 284.926 47.3611 288.82Z" fill="#E1E2FE"/>
<path opacity="0.47" d="M256.385 4.61143C257.724 3.1794 259.337 2.03204 261.128 1.23773C262.918 0.443415 264.85 0.0184026 266.808 -0.0119801C268.766 -0.0423627 270.71 0.322506 272.525 1.06088C274.339 1.79926 275.987 2.89603 277.369 4.28584C283.251 10.1266 287.463 23.8014 281.753 29.8149C276.042 35.8284 266.499 27.0108 258.614 24.8048C247.585 21.7216 250.669 10.6316 256.385 4.61143Z" fill="#E1E2FE"/>
<path opacity="0.32" d="M15.3687 86.8999C11.5156 98.0364 10.4611 110.203 12.9613 121.712C16.3171 137.194 27.8831 150.796 25.9135 167.301C24.733 177.208 24.9386 186.285 24.6998 196.02C24.2157 216 38.1493 232.566 54.497 240.825C67.7608 247.55 82.8749 249.324 97.4452 248.041C110.563 246.885 123.482 243.437 135.91 239.157C147.927 235.038 159.593 229.914 172.545 230.3C183.322 230.619 193.309 234.632 203.536 237.416C227.948 244.061 256.83 243.124 277.581 228.705C300.355 212.904 309.547 182.916 301.589 156.716C297.324 142.656 291.641 130.476 293.69 115.519C294.705 108.156 296.217 100.654 294.824 93.3519C293.537 86.6341 289.863 80.5807 285.5 75.3181C273.735 61.1183 256.982 52.0615 239.587 46.7457C219.837 40.7057 197.912 37.4431 177.38 40.5395C137.495 46.6195 128.814 40.7057 87.1193 34.7719C59.1924 30.7718 32.9963 53.0184 20.2432 75.9759C18.3102 79.4712 16.6795 83.1259 15.3687 86.8999Z" fill="#E1E2FE"/>
<g opacity="0.83">
<path opacity="0.81" d="M34.6742 119.06C40.4241 111.465 49.3042 106.316 53.6547 97.5779C58.8608 87.1324 57.7665 74.7998 62.4155 64.1283C69.2928 48.3537 81.7409 34.9579 97.3325 27.5823C104.846 24.034 113.097 21.8745 121.141 22.4924C133.543 23.4493 144.24 30.8448 152.603 39.6757C165.058 52.8256 173.825 71.4973 188.8 82.0359C197.043 87.8434 206.739 81.6771 215.473 79.7235C225.263 77.5937 235.427 77.9362 245.052 80.7202C262.434 85.6772 277.409 98.156 284.889 114.608C292.881 132.177 291.747 156.47 276.745 171.554C269.809 178.537 260.398 183.209 255.245 191.574C248.779 202.073 248.023 216.266 246.219 227.948C244.133 241.067 238.706 253.425 230.461 263.829L230.176 264.181C223.241 272.843 213.667 278.994 202.917 281.694C192.166 284.395 180.829 283.497 170.635 279.139L126.672 260.048C82.0725 240.692 48.19 209.489 31.9286 164.264C28.4137 154.477 27.1337 133.612 31.6169 124.064C32.4599 122.294 33.4845 120.617 34.6742 119.06Z" fill="#E1E2FE"/>
</g>
<path opacity="0.58" d="M240.224 279.066C241.872 279.066 243.208 277.727 243.208 276.075C243.208 274.424 241.872 273.085 240.224 273.085C238.575 273.085 237.239 274.424 237.239 276.075C237.239 277.727 238.575 279.066 240.224 279.066Z" fill="#3E479B"/>
<path opacity="0.58" d="M164.699 14.9307C165.524 14.9307 166.192 14.2613 166.192 13.4356C166.192 12.6099 165.524 11.9406 164.699 11.9406C163.875 11.9406 163.207 12.6099 163.207 13.4356C163.207 14.2613 163.875 14.9307 164.699 14.9307Z" fill="#3E479B"/>
<path opacity="0.58" d="M72.6021 286.242C74.2503 286.242 75.5865 284.903 75.5865 283.252C75.5865 281.6 74.2503 280.262 72.6021 280.262C70.9539 280.262 69.6177 281.6 69.6177 283.252C69.6177 284.903 70.9539 286.242 72.6021 286.242Z" fill="#3E479B"/>
<path opacity="0.58" d="M252.38 299.06C253.662 299.06 254.701 298.018 254.701 296.734C254.701 295.449 253.662 294.408 252.38 294.408C251.098 294.408 250.059 295.449 250.059 296.734C250.059 298.018 251.098 299.06 252.38 299.06Z" fill="#EF929C"/>
<path opacity="0.58" d="M24.0167 16.5387C24.5661 16.5387 25.0115 16.0925 25.0115 15.542C25.0115 14.9916 24.5661 14.5453 24.0167 14.5453C23.4673 14.5453 23.0219 14.9916 23.0219 15.542C23.0219 16.0925 23.4673 16.5387 24.0167 16.5387Z" fill="#3E479B"/>
<path opacity="0.58" d="M296.576 43.699C297.473 41.9327 296.77 39.7725 295.008 38.8741C293.245 37.9757 291.089 38.6792 290.192 40.4455C289.295 42.2119 289.997 44.3721 291.76 45.2705C293.523 46.1689 295.679 45.4654 296.576 43.699Z" fill="#EF929C"/>
<path opacity="0.58" d="M35.3507 6.2527C35.2921 6.52494 35.1543 6.77367 34.9547 6.96748C34.7551 7.16129 34.5027 7.29147 34.2293 7.34159C33.9559 7.3917 33.6738 7.35949 33.4186 7.24903C33.1635 7.13856 32.9467 6.9548 32.7957 6.72097C32.6448 6.48713 32.5664 6.21372 32.5705 5.93526C32.5745 5.6568 32.6609 5.3858 32.8186 5.15649C32.9764 4.92719 33.1984 4.74988 33.4567 4.64695C33.7149 4.54403 33.9978 4.52011 34.2697 4.57823C34.4505 4.61688 34.6219 4.69089 34.7741 4.796C34.9264 4.90112 35.0564 5.03529 35.1568 5.19082C35.2572 5.34635 35.326 5.5202 35.3593 5.70241C35.3926 5.88463 35.3896 6.07162 35.3507 6.2527Z" fill="#EF929C"/>
<path opacity="0.58" d="M177.691 1.70106C177.634 1.97389 177.497 2.22352 177.298 2.41835C177.099 2.61317 176.847 2.74442 176.573 2.79548C176.299 2.84653 176.017 2.81509 175.761 2.70514C175.505 2.59519 175.288 2.41167 175.136 2.17783C174.985 1.94399 174.906 1.67034 174.91 1.39154C174.913 1.11274 175 0.841334 175.158 0.611689C175.315 0.382044 175.538 0.20449 175.796 0.101515C176.055 -0.00146088 176.338 -0.0252265 176.61 0.0332275C176.974 0.111371 177.292 0.330778 177.495 0.643387C177.697 0.955996 177.768 1.33632 177.691 1.70106Z" fill="#EF929C"/>
<path opacity="0.58" d="M276.42 45.9218C276.374 46.1546 276.26 46.3684 276.093 46.536C275.925 46.7036 275.711 46.8175 275.479 46.8632C275.247 46.9088 275.006 46.8841 274.787 46.7923C274.569 46.7004 274.383 46.5456 274.253 46.3474C274.122 46.1492 274.054 45.9167 274.056 45.6794C274.058 45.4421 274.13 45.2108 274.264 45.0148C274.397 44.8188 274.586 44.6671 274.806 44.579C275.026 44.4908 275.267 44.4702 275.499 44.5197C275.805 44.5853 276.074 44.7691 276.246 45.0315C276.419 45.2938 276.481 45.6136 276.42 45.9218Z" fill="#3E479B"/>
<path opacity="0.58" d="M12.7757 252.174C12.7273 252.406 12.6114 252.618 12.4427 252.784C12.274 252.949 12.06 253.061 11.8279 253.105C11.5958 253.148 11.3559 253.122 11.1387 253.029C10.9215 252.936 10.7366 252.781 10.6076 252.583C10.4785 252.385 10.411 252.153 10.4136 251.916C10.4162 251.679 10.4888 251.449 10.6222 251.254C10.7557 251.058 10.9439 250.907 11.1631 250.819C11.3824 250.731 11.6227 250.71 11.8538 250.759C12.1633 250.824 12.4341 251.01 12.607 251.276C12.7798 251.541 12.8405 251.864 12.7757 252.174Z" fill="#3E479B"/>
<g opacity="0.66">
<path d="M231.642 126.914H226.462C225.421 126.904 224.425 126.485 223.688 125.747C222.952 125.009 222.533 124.011 222.523 122.967V117.133C222.519 116.597 222.352 116.074 222.045 115.634C221.739 115.194 221.307 114.857 220.805 114.668C220.195 114.442 219.585 114.19 218.995 113.917C218.505 113.689 217.958 113.616 217.426 113.707C216.894 113.798 216.403 114.05 216.017 114.429L211.899 118.555C211.16 119.295 210.158 119.711 209.113 119.711C208.069 119.711 207.067 119.295 206.328 118.555L202.667 114.887C201.928 114.147 201.513 113.143 201.513 112.097C201.513 111.05 201.928 110.046 202.667 109.306L206.785 105.179C207.163 104.793 207.415 104.301 207.506 103.768C207.597 103.235 207.524 102.686 207.296 102.196C207.018 101.598 206.766 100.987 206.547 100.382C206.358 99.8798 206.022 99.4466 205.583 99.1395C205.144 98.8323 204.622 98.6655 204.086 98.661H198.263C197.222 98.6506 196.226 98.2315 195.489 97.4935C194.753 96.7555 194.334 95.7576 194.324 94.714V89.5245C194.334 88.4809 194.753 87.483 195.489 86.7451C196.226 86.0071 197.222 85.5879 198.263 85.5775H204.1C204.635 85.5731 205.157 85.4063 205.596 85.0991C206.035 84.7919 206.371 84.3587 206.56 83.8565C206.779 83.2452 207.031 82.6339 207.309 82.0425C207.537 81.5522 207.611 81.0039 207.519 80.4708C207.428 79.9377 207.177 79.4452 206.799 79.059L202.68 74.9327C201.949 74.1871 201.54 73.1837 201.54 72.1386C201.54 71.0934 201.949 70.09 202.68 69.3444L206.341 65.6765C207.085 64.9461 208.085 64.5369 209.127 64.5369C210.168 64.5369 211.168 64.9461 211.912 65.6765L216.037 69.7697C216.422 70.1484 216.914 70.4003 217.446 70.4917C217.978 70.5832 218.525 70.5098 219.015 70.2813C219.612 70.0089 220.222 69.7564 220.825 69.5305C221.325 69.3418 221.757 69.0061 222.064 68.5674C222.37 68.1286 222.537 67.6074 222.543 67.0719V61.2644C222.553 60.2209 222.972 59.223 223.708 58.485C224.445 57.747 225.441 57.3279 226.482 57.3175H231.662C232.707 57.3175 233.709 57.7333 234.447 58.4735C235.186 59.2137 235.601 60.2176 235.601 61.2644V67.1118C235.607 67.6473 235.774 68.1685 236.08 68.6072C236.387 69.0459 236.819 69.3816 237.319 69.5704C237.929 69.7963 238.539 70.0488 239.129 70.3212C239.619 70.5496 240.166 70.623 240.698 70.5316C241.23 70.4402 241.722 70.1883 242.107 69.8096L246.225 65.6832C246.97 64.9507 247.971 64.5403 249.014 64.5403C250.057 64.5403 251.059 64.9507 251.803 65.6832L255.464 69.3511C256.195 70.0966 256.604 71.1 256.604 72.1452C256.604 73.1904 256.195 74.1938 255.464 74.9393L251.325 79.0723C250.947 79.4585 250.696 79.951 250.605 80.4841C250.513 81.0172 250.587 81.5655 250.815 82.0558C251.087 82.6472 251.339 83.2585 251.564 83.8698C251.752 84.371 252.088 84.8034 252.525 85.1105C252.963 85.4176 253.483 85.585 254.018 85.5908H259.841C260.885 85.5908 261.887 86.0067 262.626 86.7469C263.365 87.4871 263.78 88.491 263.78 89.5378V94.7273C263.77 95.7709 263.351 96.7688 262.615 97.5068C261.878 98.2447 260.882 98.6639 259.841 98.6743H254.018C253.483 98.6801 252.963 98.8475 252.525 99.1546C252.088 99.4617 251.752 99.8941 251.564 100.395C251.339 101 251.087 101.611 250.815 102.209C250.587 102.7 250.513 103.248 250.605 103.781C250.696 104.314 250.947 104.807 251.325 105.193L255.444 109.319C256.173 110.064 256.581 111.066 256.581 112.11C256.581 113.154 256.173 114.155 255.444 114.901L251.783 118.569C251.039 119.301 250.037 119.712 248.994 119.712C247.951 119.712 246.95 119.301 246.206 118.569L242.087 114.442C241.702 114.064 241.21 113.812 240.678 113.72C240.146 113.629 239.599 113.702 239.109 113.931C238.519 114.203 237.916 114.456 237.299 114.681C236.798 114.871 236.365 115.207 236.059 115.647C235.752 116.087 235.586 116.61 235.581 117.147V122.981C235.567 124.022 235.148 125.017 234.411 125.752C233.675 126.487 232.681 126.904 231.642 126.914ZM217.874 112.343C218.454 112.343 219.026 112.47 219.552 112.715C220.109 112.974 220.686 113.213 221.263 113.426C222.018 113.708 222.67 114.214 223.132 114.876C223.594 115.539 223.844 116.326 223.849 117.133V122.967C223.86 123.659 224.138 124.319 224.626 124.807C225.114 125.296 225.773 125.575 226.462 125.585H231.642C232.332 125.575 232.99 125.296 233.478 124.807C233.966 124.319 234.245 123.659 234.255 122.967V117.133C234.26 116.326 234.511 115.539 234.972 114.876C235.434 114.214 236.086 113.708 236.841 113.426C237.418 113.213 237.995 112.974 238.552 112.715C239.288 112.371 240.112 112.261 240.912 112.4C241.712 112.539 242.451 112.92 243.029 113.492L247.141 117.618C247.636 118.101 248.3 118.372 248.991 118.372C249.682 118.372 250.346 118.101 250.841 117.618L254.502 113.951C254.984 113.454 255.254 112.789 255.254 112.097C255.254 111.404 254.984 110.739 254.502 110.243L250.384 106.116C249.814 105.538 249.435 104.799 249.296 103.999C249.158 103.198 249.266 102.375 249.608 101.638C249.866 101.073 250.105 100.495 250.317 99.9235C250.599 99.1668 251.104 98.5138 251.765 98.051C252.426 97.5882 253.212 97.3375 254.018 97.3321H259.841C260.534 97.3321 261.198 97.0562 261.688 96.5653C262.178 96.0743 262.454 95.4084 262.454 94.714V89.5245C262.454 88.8302 262.178 88.1643 261.688 87.6733C261.198 87.1823 260.534 86.9065 259.841 86.9065H254.018C253.211 86.9005 252.425 86.6488 251.764 86.1848C251.103 85.7208 250.598 85.0664 250.317 84.3084C250.105 83.7369 249.866 83.1588 249.608 82.6007C249.265 81.8631 249.155 81.038 249.294 80.2362C249.433 79.4345 249.813 78.6944 250.384 78.1155L254.502 73.9891C254.992 73.4982 255.267 72.8326 255.267 72.1386C255.267 71.4445 254.992 70.7789 254.502 70.288L250.841 66.6201C250.346 66.1371 249.682 65.8668 248.991 65.8668C248.3 65.8668 247.636 66.1371 247.141 66.6201L243.029 70.7465C242.451 71.3183 241.712 71.6993 240.912 71.8382C240.112 71.9772 239.288 71.8675 238.552 71.5239C237.995 71.2648 237.418 71.0256 236.841 70.8129C236.086 70.5302 235.434 70.0243 234.972 69.3622C234.511 68.7 234.26 67.913 234.255 67.1052V61.2644C234.255 60.5701 233.98 59.9042 233.49 59.4132C232.999 58.9222 232.335 58.6464 231.642 58.6464H226.462C225.769 58.6464 225.105 58.9222 224.615 59.4132C224.125 59.9042 223.849 60.5701 223.849 61.2644V67.1118C223.844 67.9196 223.594 68.7067 223.132 69.3688C222.67 70.0309 222.018 70.5369 221.263 70.8196C220.693 71.0322 220.116 71.2714 219.552 71.5306C218.817 71.8727 217.994 71.9816 217.196 71.8426C216.397 71.7037 215.659 71.3236 215.082 70.7531L210.964 66.6267C210.468 66.1437 209.804 65.8735 209.113 65.8735C208.422 65.8735 207.758 66.1437 207.263 66.6267L203.602 70.2946C203.122 70.7906 202.854 71.4543 202.854 72.1452C202.854 72.8361 203.122 73.4998 203.602 73.9958L207.721 78.1221C208.291 78.7011 208.672 79.4411 208.81 80.2429C208.949 81.0446 208.839 81.8697 208.497 82.6073C208.238 83.1655 207.999 83.7436 207.787 84.315C207.506 85.073 207.001 85.7274 206.34 86.1914C205.679 86.6555 204.893 86.9072 204.086 86.9131H198.263C197.574 86.9234 196.915 87.2025 196.427 87.6913C195.939 88.1801 195.661 88.84 195.651 89.5312V94.7207C195.661 95.4118 195.939 96.0718 196.427 96.5605C196.915 97.0493 197.574 97.3284 198.263 97.3387H204.1C204.906 97.3442 205.691 97.5949 206.352 98.0577C207.013 98.5204 207.518 99.1734 207.8 99.9302C208.012 100.502 208.251 101.08 208.51 101.645C208.851 102.381 208.96 103.205 208.821 104.005C208.683 104.806 208.303 105.545 207.734 106.123L203.615 110.249C203.133 110.746 202.864 111.411 202.864 112.103C202.864 112.796 203.133 113.461 203.615 113.957L207.276 117.625C207.772 118.108 208.435 118.378 209.127 118.378C209.818 118.378 210.482 118.108 210.977 117.625L215.095 113.499C215.831 112.758 216.831 112.339 217.874 112.336V112.343ZM229.055 110.349C225.455 110.349 221.935 109.279 218.941 107.275C215.948 105.271 213.614 102.422 212.237 99.0894C210.859 95.7565 210.498 92.0891 211.201 88.5509C211.903 85.0127 213.637 81.7627 216.183 79.2118C218.729 76.6609 221.973 74.9238 225.504 74.22C229.035 73.5162 232.696 73.8774 236.022 75.2579C239.348 76.6385 242.192 78.9763 244.192 81.9758C246.192 84.9753 247.26 88.5018 247.26 92.1093C247.255 96.9452 245.335 101.581 241.922 105.001C238.509 108.42 233.882 110.344 229.055 110.349ZM229.055 75.1985C225.717 75.1985 222.454 76.1903 219.678 78.0484C216.903 79.9066 214.739 82.5478 213.462 85.6378C212.185 88.7279 211.85 92.1281 212.502 95.4085C213.153 98.6888 214.76 101.702 217.121 104.067C219.481 106.432 222.489 108.043 225.763 108.695C229.037 109.348 232.43 109.013 235.514 107.733C238.599 106.453 241.235 104.285 243.089 101.504C244.944 98.7235 245.934 95.454 245.934 92.1093C245.928 87.6259 244.148 83.3276 240.984 80.1574C237.82 76.9871 233.53 75.2037 229.055 75.1985Z" fill="white"/>
<g opacity="0.84">
<path d="M222.006 221.722H215.546C214.801 221.721 214.074 221.491 213.463 221.063C212.852 220.636 212.387 220.03 212.131 219.329C211.885 218.665 211.62 218 211.322 217.376C211.003 216.695 210.902 215.933 211.03 215.193C211.158 214.453 211.51 213.77 212.038 213.236L216.601 208.658C216.938 208.32 217.206 207.918 217.389 207.477C217.571 207.035 217.665 206.561 217.665 206.083C217.665 205.605 217.571 205.131 217.389 204.69C217.206 204.248 216.938 203.846 216.601 203.508L212.542 199.442C212.204 199.104 211.804 198.835 211.363 198.652C210.922 198.469 210.449 198.375 209.972 198.375C209.495 198.375 209.022 198.469 208.581 198.652C208.14 198.835 207.74 199.104 207.402 199.442L202.833 203.993C202.3 204.523 201.619 204.875 200.88 205.004C200.141 205.132 199.38 205.03 198.701 204.711C198.038 204.412 197.415 204.146 196.751 203.9C196.052 203.643 195.448 203.177 195.021 202.565C194.594 201.953 194.365 201.225 194.364 200.478V194.026C194.364 193.548 194.27 193.075 194.087 192.633C193.905 192.191 193.637 191.79 193.299 191.451C192.962 191.113 192.561 190.845 192.12 190.662C191.679 190.479 191.207 190.385 190.73 190.385H184.986C184.023 190.387 183.1 190.771 182.418 191.453C181.737 192.136 181.354 193.061 181.352 194.026V200.498C181.352 201.245 181.122 201.973 180.695 202.585C180.268 203.197 179.664 203.663 178.965 203.92C178.301 204.166 177.638 204.432 177.015 204.731C176.336 205.05 175.575 205.152 174.836 205.024C174.097 204.895 173.416 204.543 172.883 204.013L168.287 199.442C167.95 199.104 167.549 198.835 167.108 198.652C166.667 198.469 166.195 198.375 165.717 198.375C165.24 198.375 164.768 198.469 164.327 198.652C163.886 198.835 163.485 199.104 163.148 199.442L159.089 203.508C158.751 203.846 158.484 204.248 158.301 204.69C158.118 205.131 158.024 205.605 158.024 206.083C158.024 206.561 158.118 207.035 158.301 207.477C158.484 207.918 158.751 208.32 159.089 208.658L163.658 213.236C164.187 213.769 164.539 214.453 164.666 215.194C164.793 215.934 164.689 216.696 164.368 217.376C164.076 218.04 163.804 218.665 163.559 219.329C163.303 220.031 162.838 220.637 162.227 221.065C161.616 221.493 160.889 221.722 160.143 221.722H153.697C153.219 221.721 152.746 221.814 152.304 221.997C151.863 222.179 151.461 222.447 151.123 222.786C150.785 223.124 150.516 223.526 150.333 223.968C150.15 224.41 150.056 224.884 150.056 225.363V231.117C150.058 232.084 150.442 233.01 151.125 233.692C151.807 234.375 152.733 234.758 153.697 234.758H160.15C160.895 234.758 161.623 234.987 162.234 235.415C162.845 235.843 163.31 236.449 163.565 237.151C163.811 237.815 164.083 238.48 164.374 239.104C164.695 239.784 164.799 240.546 164.672 241.286C164.545 242.027 164.194 242.711 163.665 243.244L159.115 247.849C158.778 248.187 158.51 248.588 158.327 249.03C158.145 249.472 158.051 249.945 158.051 250.423C158.051 250.902 158.145 251.375 158.327 251.817C158.51 252.259 158.778 252.66 159.115 252.998L163.174 257.065C163.512 257.403 163.912 257.671 164.353 257.854C164.794 258.037 165.267 258.131 165.744 258.131C166.221 258.131 166.694 258.037 167.135 257.854C167.576 257.671 167.976 257.403 168.314 257.065L172.883 252.487C173.415 251.957 174.097 251.604 174.837 251.477C175.576 251.35 176.337 251.454 177.015 251.776C177.678 252.068 178.301 252.34 178.965 252.586C179.665 252.843 180.269 253.308 180.696 253.92C181.124 254.533 181.352 255.261 181.352 256.008V262.467C181.352 263.433 181.735 264.36 182.416 265.044C183.098 265.728 184.022 266.113 184.986 266.115H190.73C191.207 266.115 191.681 266.021 192.122 265.837C192.563 265.654 192.964 265.385 193.302 265.046C193.639 264.707 193.907 264.305 194.089 263.863C194.271 263.42 194.365 262.946 194.364 262.467V256.002C194.364 255.255 194.592 254.526 195.02 253.914C195.447 253.302 196.051 252.836 196.751 252.58C197.415 252.334 198.078 252.061 198.701 251.769C199.379 251.447 200.14 251.343 200.879 251.47C201.618 251.598 202.301 251.95 202.833 252.48L207.402 257.058C207.74 257.396 208.14 257.665 208.581 257.848C209.022 258.031 209.495 258.125 209.972 258.125C210.449 258.125 210.922 258.031 211.363 257.848C211.804 257.665 212.204 257.396 212.542 257.058L216.601 252.992C216.938 252.654 217.206 252.252 217.389 251.81C217.571 251.368 217.665 250.895 217.665 250.417C217.665 249.939 217.571 249.465 217.389 249.023C217.206 248.582 216.938 248.18 216.601 247.842L212.058 243.244C211.53 242.71 211.178 242.027 211.05 241.287C210.921 240.547 211.023 239.785 211.342 239.104C211.64 238.44 211.905 237.815 212.151 237.151C212.407 236.45 212.872 235.844 213.483 235.417C214.094 234.989 214.821 234.759 215.566 234.758H222.006C222.969 234.757 223.892 234.373 224.574 233.69C225.255 233.008 225.638 232.082 225.64 231.117V225.363C225.64 224.397 225.257 223.471 224.576 222.788C223.894 222.105 222.97 221.722 222.006 221.722ZM187.858 247.729C184.011 247.729 180.25 246.586 177.051 244.445C173.853 242.303 171.359 239.259 169.887 235.698C168.415 232.137 168.03 228.218 168.78 224.438C169.531 220.657 171.383 217.185 174.104 214.459C176.824 211.734 180.29 209.877 184.063 209.125C187.836 208.373 191.747 208.759 195.302 210.234C198.856 211.71 201.894 214.208 204.031 217.412C206.169 220.617 207.309 224.385 207.309 228.24C207.309 233.409 205.26 238.366 201.612 242.021C197.964 245.676 193.017 247.729 187.858 247.729Z" fill="white"/>
</g>
<path d="M120.995 260.474H116.651C115.745 260.474 114.875 260.113 114.234 259.472C113.592 258.83 113.231 257.96 113.229 257.052V252.148C113.233 251.714 113.103 251.29 112.857 250.934C112.612 250.577 112.262 250.305 111.856 250.154C111.346 249.968 110.828 249.756 110.331 249.523C109.94 249.338 109.503 249.278 109.077 249.35C108.651 249.423 108.258 249.625 107.95 249.928L104.488 253.397C104.171 253.715 103.794 253.968 103.379 254.14C102.965 254.313 102.52 254.402 102.071 254.402C101.622 254.402 101.177 254.313 100.762 254.14C100.348 253.968 99.9709 253.715 99.6536 253.397L96.5831 250.314C96.2652 249.996 96.0131 249.618 95.841 249.203C95.669 248.787 95.5805 248.342 95.5805 247.892C95.5805 247.442 95.669 246.996 95.841 246.581C96.0131 246.165 96.2652 245.788 96.5831 245.47L100.038 242.008C100.342 241.7 100.544 241.306 100.617 240.88C100.691 240.453 100.632 240.015 100.449 239.622C100.217 239.124 100.005 238.606 99.7863 238.087C99.6378 237.68 99.3666 237.329 99.0102 237.082C98.6538 236.836 98.2297 236.706 97.7967 236.712H92.909C92.0037 236.71 91.136 236.349 90.4959 235.708C89.8557 235.066 89.4953 234.197 89.4936 233.29V228.931C89.4953 228.024 89.8557 227.155 90.4959 226.513C91.136 225.872 92.0037 225.511 92.909 225.509H97.7967C98.2297 225.515 98.6538 225.385 99.0102 225.139C99.3666 224.892 99.6378 224.541 99.7863 224.134C99.9786 223.615 100.191 223.097 100.449 222.599C100.632 222.206 100.691 221.768 100.617 221.341C100.544 220.915 100.342 220.521 100.038 220.213L96.5831 216.751C96.2652 216.433 96.0131 216.056 95.841 215.64C95.669 215.225 95.5805 214.779 95.5805 214.329C95.5805 213.879 95.669 213.434 95.841 213.018C96.0131 212.603 96.2652 212.225 96.5831 211.907L99.6536 208.824C100.297 208.186 101.166 207.828 102.071 207.828C102.976 207.828 103.845 208.186 104.488 208.824L107.95 212.293C108.258 212.596 108.651 212.798 109.077 212.871C109.503 212.943 109.94 212.883 110.331 212.698C110.822 212.472 111.339 212.259 111.856 212.067C112.262 211.916 112.612 211.644 112.857 211.287C113.103 210.931 113.233 210.507 113.229 210.073V205.169C113.231 204.261 113.592 203.391 114.234 202.749C114.875 202.108 115.745 201.747 116.651 201.747H120.995C121.902 201.747 122.771 202.108 123.413 202.749C124.054 203.391 124.415 204.261 124.417 205.169V210.073C124.414 210.507 124.543 210.931 124.789 211.287C125.035 211.644 125.384 211.916 125.79 212.067C126.307 212.259 126.825 212.472 127.315 212.698C127.706 212.883 128.144 212.943 128.569 212.871C128.995 212.798 129.389 212.596 129.696 212.293L133.158 208.824C133.801 208.186 134.67 207.828 135.575 207.828C136.481 207.828 137.349 208.186 137.993 208.824L141.096 211.967C141.414 212.285 141.666 212.662 141.838 213.078C142.01 213.494 142.099 213.939 142.099 214.389C142.099 214.839 142.01 215.284 141.838 215.7C141.666 216.116 141.414 216.493 141.096 216.811L137.641 220.273C137.339 220.581 137.137 220.975 137.064 221.401C136.99 221.828 137.048 222.266 137.23 222.658C137.462 223.157 137.674 223.675 137.893 224.193C138.042 224.601 138.313 224.952 138.669 225.199C139.026 225.445 139.45 225.574 139.883 225.569H144.771C145.677 225.569 146.546 225.929 147.188 226.571C147.829 227.212 148.191 228.083 148.193 228.991V233.35C148.191 234.258 147.829 235.128 147.188 235.77C146.546 236.411 145.677 236.772 144.771 236.772H139.77C139.337 236.766 138.913 236.896 138.557 237.142C138.2 237.388 137.929 237.74 137.78 238.147C137.588 238.666 137.376 239.184 137.117 239.682C136.936 240.075 136.878 240.513 136.951 240.939C137.024 241.366 137.226 241.759 137.528 242.068L140.984 245.53C141.302 245.847 141.554 246.225 141.726 246.641C141.898 247.056 141.986 247.502 141.986 247.952C141.986 248.402 141.898 248.847 141.726 249.263C141.554 249.678 141.302 250.056 140.984 250.374L137.913 253.457C137.596 253.775 137.219 254.028 136.804 254.2C136.389 254.373 135.945 254.461 135.496 254.461C135.047 254.461 134.602 254.373 134.187 254.2C133.772 254.028 133.396 253.775 133.078 253.457L129.617 249.988C129.309 249.685 128.916 249.483 128.49 249.41C128.064 249.338 127.626 249.398 127.236 249.583C126.732 249.815 126.221 250.028 125.71 250.214C125.305 250.365 124.955 250.637 124.709 250.993C124.464 251.35 124.334 251.774 124.338 252.208V257.111C124.321 257.996 123.964 258.839 123.341 259.465C122.718 260.092 121.877 260.453 120.995 260.474ZM109.429 248.021C109.933 248.022 110.43 248.13 110.888 248.34C111.359 248.56 111.836 248.759 112.314 248.932C112.971 249.174 113.537 249.613 113.938 250.188C114.339 250.763 114.554 251.447 114.556 252.148V257.052C114.557 257.607 114.779 258.14 115.172 258.532C115.565 258.924 116.097 259.145 116.651 259.145H120.995C121.55 259.145 122.082 258.924 122.475 258.532C122.867 258.14 123.089 257.607 123.091 257.052V252.148C123.094 251.447 123.31 250.764 123.711 250.189C124.111 249.615 124.677 249.176 125.332 248.932C125.81 248.759 126.287 248.56 126.758 248.34C127.396 248.043 128.108 247.948 128.801 248.066C129.495 248.185 130.135 248.512 130.638 249.005L134.093 252.467C134.492 252.848 135.021 253.06 135.572 253.06C136.123 253.06 136.652 252.848 137.051 252.467L140.128 249.39C140.519 248.997 140.739 248.464 140.739 247.908C140.739 247.353 140.519 246.82 140.128 246.427L136.666 242.958C136.173 242.457 135.845 241.816 135.726 241.122C135.608 240.428 135.704 239.715 136.003 239.078C136.215 238.612 136.414 238.127 136.593 237.642C136.836 236.985 137.274 236.418 137.848 236.016C138.421 235.615 139.104 235.399 139.803 235.396H144.691C145.246 235.396 145.778 235.176 146.17 234.784C146.563 234.391 146.785 233.859 146.787 233.303V228.944C146.785 228.389 146.563 227.856 146.17 227.464C145.778 227.072 145.246 226.851 144.691 226.851H139.77C139.073 226.843 138.396 226.622 137.827 226.218C137.259 225.815 136.826 225.248 136.587 224.592C136.408 224.107 136.209 223.622 135.996 223.163C135.698 222.525 135.602 221.811 135.72 221.116C135.839 220.421 136.167 219.779 136.66 219.276L140.122 215.808C140.316 215.613 140.47 215.382 140.575 215.128C140.68 214.874 140.733 214.601 140.732 214.326C140.732 213.771 140.512 213.238 140.122 212.844L137.044 209.768C136.652 209.376 136.12 209.156 135.565 209.156C135.011 209.156 134.479 209.376 134.086 209.768L130.631 213.23C130.129 213.724 129.489 214.052 128.795 214.171C128.102 214.29 127.389 214.193 126.752 213.894C126.294 213.681 125.81 213.482 125.326 213.303C124.67 213.058 124.105 212.62 123.704 212.045C123.304 211.47 123.087 210.787 123.084 210.087V205.183C123.082 204.627 122.861 204.095 122.468 203.702C122.075 203.31 121.543 203.09 120.988 203.09H116.645C116.09 203.09 115.558 203.31 115.165 203.702C114.772 204.095 114.551 204.627 114.549 205.183V210.087C114.548 210.788 114.332 211.472 113.931 212.047C113.531 212.622 112.964 213.06 112.307 213.303C111.823 213.482 111.346 213.681 110.881 213.894C110.244 214.193 109.531 214.29 108.838 214.171C108.144 214.052 107.504 213.724 107.002 213.23L103.547 209.768C103.154 209.376 102.622 209.156 102.068 209.156C101.513 209.156 100.982 209.376 100.589 209.768L97.5115 212.844C97.1206 213.238 96.9012 213.771 96.9014 214.326C96.9002 214.601 96.9535 214.874 97.0583 215.128C97.163 215.382 97.3171 215.613 97.5115 215.808L100.973 219.276C101.467 219.777 101.795 220.418 101.913 221.112C102.032 221.806 101.935 222.52 101.637 223.157C101.424 223.622 101.225 224.107 101.046 224.592C100.804 225.25 100.367 225.818 99.7928 226.219C99.219 226.621 98.5364 226.837 97.8365 226.838H92.9488C92.3947 226.838 91.8634 227.058 91.4716 227.451C91.0798 227.844 90.8597 228.376 90.8597 228.931V233.29C90.8597 233.845 91.0798 234.377 91.4716 234.77C91.8634 235.163 92.3947 235.383 92.9488 235.383H97.8365C98.5364 235.384 99.219 235.6 99.7928 236.002C100.367 236.403 100.804 236.971 101.046 237.629C101.225 238.114 101.424 238.599 101.637 239.064C101.935 239.701 102.032 240.415 101.913 241.109C101.795 241.803 101.467 242.444 100.973 242.945L97.5115 246.413C97.1203 246.807 96.9007 247.34 96.9007 247.895C96.9007 248.451 97.1203 248.983 97.5115 249.377L100.589 252.453C100.986 252.836 101.516 253.05 102.068 253.05C102.619 253.05 103.149 252.836 103.547 252.453L107.002 248.991C107.651 248.36 108.524 248.011 109.429 248.021ZM118.826 246.566C115.781 246.567 112.803 245.664 110.269 243.969C107.736 242.275 105.761 239.865 104.595 237.046C103.428 234.227 103.122 231.124 103.716 228.131C104.309 225.138 105.775 222.388 107.929 220.229C110.082 218.071 112.826 216.601 115.813 216.005C118.801 215.409 121.897 215.714 124.711 216.882C127.526 218.049 129.931 220.027 131.623 222.564C133.316 225.102 134.219 228.085 134.219 231.137C134.216 235.227 132.593 239.148 129.707 242.041C126.822 244.933 122.908 246.561 118.826 246.566ZM118.826 217.037C116.043 217.036 113.321 217.861 111.006 219.41C108.691 220.959 106.886 223.16 105.82 225.737C104.754 228.313 104.474 231.148 105.017 233.884C105.559 236.619 106.899 239.132 108.866 241.105C110.834 243.078 113.342 244.421 116.072 244.966C118.802 245.51 121.632 245.232 124.204 244.165C126.776 243.098 128.974 241.29 130.521 238.971C132.067 236.652 132.893 233.926 132.893 231.137C132.889 227.4 131.406 223.816 128.769 221.173C126.132 218.53 122.557 217.042 118.826 217.037Z" fill="white"/>
</g>
<g opacity="0.81">
<path d="M261.691 188.398H253.07C252.894 188.398 252.725 188.328 252.601 188.204C252.476 188.079 252.406 187.91 252.406 187.734C252.406 187.557 252.476 187.388 252.601 187.264C252.725 187.139 252.894 187.069 253.07 187.069H261.691C261.867 187.069 262.036 187.139 262.16 187.264C262.284 187.388 262.354 187.557 262.354 187.734C262.354 187.91 262.284 188.079 262.16 188.204C262.036 188.328 261.867 188.398 261.691 188.398Z" fill="white"/>
<path d="M261.691 202.664H253.07C252.894 202.664 252.725 202.594 252.601 202.47C252.476 202.345 252.406 202.176 252.406 202C252.406 201.824 252.476 201.655 252.601 201.53C252.725 201.405 252.894 201.335 253.07 201.335H261.691C261.867 201.335 262.036 201.405 262.16 201.53C262.284 201.655 262.354 201.824 262.354 202C262.354 202.176 262.284 202.345 262.16 202.47C262.036 202.594 261.867 202.664 261.691 202.664Z" fill="white"/>
<path d="M267.799 217.083H215.235C214.758 217.083 214.301 216.894 213.964 216.556C213.627 216.218 213.437 215.76 213.437 215.283V171.248C213.437 170.771 213.627 170.312 213.964 169.975C214.301 169.637 214.758 169.447 215.235 169.447H267.799C268.276 169.447 268.734 169.637 269.072 169.974C269.41 170.312 269.601 170.77 269.603 171.248V215.289C269.602 215.526 269.555 215.76 269.464 215.978C269.372 216.196 269.239 216.394 269.072 216.561C268.904 216.727 268.706 216.859 268.487 216.949C268.269 217.039 268.035 217.084 267.799 217.083ZM215.235 170.77C215.11 170.77 214.99 170.819 214.902 170.908C214.813 170.996 214.764 171.116 214.764 171.241V215.289C214.764 215.415 214.813 215.535 214.902 215.623C214.99 215.711 215.11 215.761 215.235 215.761H267.799C267.861 215.762 267.923 215.751 267.981 215.727C268.039 215.704 268.092 215.669 268.136 215.625C268.181 215.581 268.216 215.529 268.24 215.472C268.264 215.414 268.277 215.352 268.276 215.289V171.248C268.277 171.186 268.264 171.124 268.24 171.066C268.216 171.008 268.181 170.956 268.136 170.912C268.092 170.868 268.039 170.834 267.981 170.81C267.923 170.787 267.861 170.775 267.799 170.776L215.235 170.77Z" fill="white"/>
<path opacity="0.66" d="M267.799 217.083H215.235C214.758 217.083 214.301 216.894 213.964 216.556C213.627 216.218 213.437 215.76 213.437 215.283V171.248C213.437 170.771 213.627 170.312 213.964 169.975C214.301 169.637 214.758 169.447 215.235 169.447H267.799C268.276 169.447 268.734 169.637 269.072 169.974C269.41 170.312 269.601 170.77 269.603 171.248V215.289C269.602 215.526 269.555 215.76 269.464 215.978C269.372 216.196 269.239 216.394 269.072 216.561C268.904 216.727 268.706 216.859 268.487 216.949C268.269 217.039 268.035 217.084 267.799 217.083ZM215.235 170.77C215.11 170.77 214.99 170.819 214.902 170.908C214.813 170.996 214.764 171.116 214.764 171.241V215.289C214.764 215.415 214.813 215.535 214.902 215.623C214.99 215.711 215.11 215.761 215.235 215.761H267.799C267.861 215.762 267.923 215.751 267.981 215.727C268.039 215.704 268.092 215.669 268.136 215.625C268.181 215.581 268.216 215.529 268.24 215.472C268.264 215.414 268.277 215.352 268.276 215.289V171.248C268.277 171.186 268.264 171.124 268.24 171.066C268.216 171.008 268.181 170.956 268.136 170.912C268.092 170.868 268.039 170.834 267.981 170.81C267.923 170.787 267.861 170.775 267.799 170.776L215.235 170.77Z" fill="white"/>
<path d="M261.691 181.468H220.487C220.311 181.468 220.142 181.398 220.018 181.273C219.894 181.148 219.824 180.979 219.824 180.803C219.824 180.627 219.894 180.458 220.018 180.333C220.142 180.209 220.311 180.139 220.487 180.139H261.691C261.867 180.139 262.036 180.209 262.16 180.333C262.284 180.458 262.354 180.627 262.354 180.803C262.354 180.979 262.284 181.148 262.16 181.273C262.036 181.398 261.867 181.468 261.691 181.468Z" fill="white"/>
<path d="M261.691 195.355H220.487C220.311 195.355 220.142 195.285 220.018 195.161C219.894 195.036 219.824 194.867 219.824 194.691C219.824 194.515 219.894 194.346 220.018 194.221C220.142 194.096 220.311 194.026 220.487 194.026H261.691C261.867 194.026 262.036 194.096 262.16 194.221C262.284 194.346 262.354 194.515 262.354 194.691C262.354 194.867 262.284 195.036 262.16 195.161C262.036 195.285 261.867 195.355 261.691 195.355Z" fill="white"/>
<path d="M242.704 188.398H220.487C220.311 188.398 220.142 188.328 220.018 188.204C219.894 188.079 219.824 187.91 219.824 187.734C219.824 187.557 219.894 187.388 220.018 187.264C220.142 187.139 220.311 187.069 220.487 187.069H242.704C242.88 187.069 243.048 187.139 243.173 187.264C243.297 187.388 243.367 187.557 243.367 187.734C243.367 187.91 243.297 188.079 243.173 188.204C243.048 188.328 242.88 188.398 242.704 188.398Z" fill="white"/>
<path d="M242.704 202.664H220.487C220.311 202.664 220.142 202.594 220.018 202.47C219.894 202.345 219.824 202.176 219.824 202C219.824 201.824 219.894 201.655 220.018 201.53C220.142 201.405 220.311 201.335 220.487 201.335H242.704C242.88 201.335 243.048 201.405 243.173 201.53C243.297 201.655 243.367 201.824 243.367 202C243.367 202.176 243.297 202.345 243.173 202.47C243.048 202.594 242.88 202.664 242.704 202.664Z" fill="white"/>
<path d="M235.468 209.309H220.487C220.311 209.309 220.142 209.239 220.018 209.115C219.894 208.99 219.824 208.821 219.824 208.645C219.824 208.468 219.894 208.299 220.018 208.175C220.142 208.05 220.311 207.98 220.487 207.98H235.468C235.644 207.98 235.813 208.05 235.937 208.175C236.062 208.299 236.132 208.468 236.132 208.645C236.132 208.821 236.062 208.99 235.937 209.115C235.813 209.239 235.644 209.309 235.468 209.309Z" fill="white"/>
</g>
<g opacity="0.81">
<path d="M93.4793 115.725H83.6707C83.4948 115.725 83.3262 115.655 83.2018 115.53C83.0774 115.405 83.0075 115.236 83.0075 115.06C83.0075 114.884 83.0774 114.715 83.2018 114.59C83.3262 114.466 83.4948 114.396 83.6707 114.396H93.4793C93.6552 114.396 93.8239 114.466 93.9483 114.59C94.0726 114.715 94.1425 114.884 94.1425 115.06C94.1425 115.236 94.0726 115.405 93.9483 115.53C93.8239 115.655 93.6552 115.725 93.4793 115.725Z" fill="white"/>
<path d="M93.4793 131.925H83.6707C83.4948 131.925 83.3262 131.855 83.2018 131.73C83.0774 131.605 83.0075 131.436 83.0075 131.26C83.0075 131.084 83.0774 130.915 83.2018 130.79C83.3262 130.666 83.4948 130.596 83.6707 130.596H93.4793C93.6552 130.596 93.8239 130.666 93.9483 130.79C94.0726 130.915 94.1425 131.084 94.1425 131.26C94.1425 131.436 94.0726 131.605 93.9483 131.73C93.8239 131.855 93.6552 131.925 93.4793 131.925Z" fill="white"/>
<path d="M100.569 148.277H40.623C40.1464 148.277 39.6892 148.088 39.3522 147.75C39.0151 147.412 38.8258 146.954 38.8258 146.477V96.2158C38.8258 95.7376 39.0149 95.2789 39.3518 94.9401C39.6886 94.6013 40.1458 94.4101 40.623 94.4084H100.569C101.046 94.4101 101.503 94.6013 101.84 94.9401C102.177 95.2789 102.366 95.7376 102.366 96.2158V146.477C102.366 146.713 102.32 146.947 102.229 147.166C102.139 147.384 102.007 147.583 101.84 147.75C101.673 147.917 101.475 148.05 101.257 148.14C101.039 148.231 100.805 148.277 100.569 148.277ZM40.623 95.7373C40.5606 95.7373 40.4988 95.7497 40.4413 95.7739C40.3837 95.798 40.3315 95.8333 40.2877 95.8779C40.2439 95.9224 40.2093 95.9752 40.1861 96.0332C40.1628 96.0912 40.1513 96.1532 40.1522 96.2158V146.477C40.1522 146.602 40.2018 146.722 40.2901 146.81C40.3784 146.899 40.4981 146.948 40.623 146.948H100.569C100.694 146.948 100.813 146.899 100.902 146.81C100.99 146.722 101.04 146.602 101.04 146.477V96.2158C101.041 96.1532 101.029 96.0912 101.006 96.0332C100.983 95.9752 100.948 95.9224 100.904 95.8779C100.86 95.8333 100.808 95.798 100.751 95.7739C100.693 95.7497 100.631 95.7373 100.569 95.7373H40.623Z" fill="white"/>
<path opacity="0.66" d="M100.569 148.277H40.623C40.1464 148.277 39.6892 148.088 39.3522 147.75C39.0151 147.412 38.8258 146.954 38.8258 146.477V96.2158C38.8258 95.7376 39.0149 95.2789 39.3518 94.9401C39.6886 94.6013 40.1458 94.4101 40.623 94.4084H100.569C101.046 94.4101 101.503 94.6013 101.84 94.9401C102.177 95.2789 102.366 95.7376 102.366 96.2158V146.477C102.366 146.713 102.32 146.947 102.229 147.166C102.139 147.384 102.007 147.583 101.84 147.75C101.673 147.917 101.475 148.05 101.257 148.14C101.039 148.231 100.805 148.277 100.569 148.277ZM40.623 95.7373C40.5606 95.7373 40.4988 95.7497 40.4413 95.7739C40.3837 95.798 40.3315 95.8333 40.2877 95.8779C40.2439 95.9224 40.2093 95.9752 40.1861 96.0332C40.1628 96.0912 40.1513 96.1532 40.1522 96.2158V146.477C40.1522 146.602 40.2018 146.722 40.2901 146.81C40.3784 146.899 40.4981 146.948 40.623 146.948H100.569C100.694 146.948 100.813 146.899 100.902 146.81C100.99 146.722 101.04 146.602 101.04 146.477V96.2158C101.041 96.1532 101.029 96.0912 101.006 96.0332C100.983 95.9752 100.948 95.9224 100.904 95.8779C100.86 95.8333 100.808 95.798 100.751 95.7739C100.693 95.7497 100.631 95.7373 100.569 95.7373H40.623Z" fill="white"/>
<path d="M93.4793 107.871H46.7377C46.5618 107.871 46.3931 107.801 46.2687 107.676C46.1443 107.551 46.0745 107.382 46.0745 107.206C46.0745 107.03 46.1443 106.861 46.2687 106.736C46.3931 106.612 46.5618 106.542 46.7377 106.542H93.4793C93.6552 106.542 93.8239 106.612 93.9483 106.736C94.0727 106.861 94.1425 107.03 94.1425 107.206C94.1425 107.382 94.0727 107.551 93.9483 107.676C93.8239 107.801 93.6552 107.871 93.4793 107.871Z" fill="white"/>
<path d="M93.4793 123.592H46.7377C46.5618 123.592 46.3931 123.522 46.2687 123.397C46.1443 123.273 46.0745 123.104 46.0745 122.928C46.0745 122.751 46.1443 122.582 46.2687 122.458C46.3931 122.333 46.5618 122.263 46.7377 122.263H93.4793C93.6552 122.263 93.8239 122.333 93.9483 122.458C94.0727 122.582 94.1425 122.751 94.1425 122.928C94.1425 123.104 94.0727 123.273 93.9483 123.397C93.8239 123.522 93.6552 123.592 93.4793 123.592Z" fill="white"/>
<path d="M71.9389 115.725H46.7377C46.5618 115.725 46.3931 115.655 46.2687 115.53C46.1443 115.405 46.0745 115.236 46.0745 115.06C46.0745 114.884 46.1443 114.715 46.2687 114.59C46.3931 114.466 46.5618 114.396 46.7377 114.396H71.9389C72.1148 114.396 72.2835 114.466 72.4078 114.59C72.5322 114.715 72.6021 114.884 72.6021 115.06C72.6021 115.236 72.5322 115.405 72.4078 115.53C72.2835 115.655 72.1148 115.725 71.9389 115.725Z" fill="white"/>
<path d="M71.9389 131.925H46.7377C46.5618 131.925 46.3931 131.855 46.2687 131.73C46.1443 131.605 46.0745 131.436 46.0745 131.26C46.0745 131.084 46.1443 130.915 46.2687 130.79C46.3931 130.666 46.5618 130.596 46.7377 130.596H71.9389C72.1148 130.596 72.2835 130.666 72.4078 130.79C72.5322 130.915 72.6021 131.084 72.6021 131.26C72.6021 131.436 72.5322 131.605 72.4078 131.73C72.2835 131.855 72.1148 131.925 71.9389 131.925Z" fill="white"/>
<path d="M63.7352 139.426H46.7377C46.5618 139.426 46.3931 139.356 46.2687 139.232C46.1443 139.107 46.0745 138.938 46.0745 138.762C46.0745 138.586 46.1443 138.417 46.2687 138.292C46.3931 138.168 46.5618 138.098 46.7377 138.098H63.7352C63.9111 138.098 64.0798 138.168 64.2042 138.292C64.3286 138.417 64.3984 138.586 64.3984 138.762C64.3984 138.938 64.3286 139.107 64.2042 139.232C64.0798 139.356 63.9111 139.426 63.7352 139.426Z" fill="white"/>
</g>
<path d="M266.174 93.4383H236.331C235.642 93.4697 234.981 93.7236 234.448 94.1619C233.915 94.6002 233.538 95.1994 233.373 95.8702L232.385 99.1527C232.219 99.8235 231.842 100.423 231.309 100.861C230.776 101.299 230.116 101.553 229.427 101.585H186.79C185.059 101.585 183.66 103.206 183.66 105.206V153.613C183.66 155.606 185.059 157.234 186.79 157.234H266.174C267.091 157.19 267.954 156.784 268.575 156.106C269.195 155.428 269.524 154.532 269.49 153.613V97.0597C269.524 96.1402 269.195 95.2444 268.575 94.5664C267.954 93.8885 267.091 93.4831 266.174 93.4383Z" fill="#3E479B"/>
<path d="M235.72 102.096L236.775 98.8138C236.975 98.125 237.389 97.5178 237.956 97.0805C238.524 96.6432 239.216 96.3985 239.932 96.3819H266.174C267.091 96.4267 267.954 96.8321 268.575 97.51C269.195 98.188 269.524 99.0838 269.49 100.003V156.557C269.524 157.475 269.195 158.37 268.574 159.047C267.953 159.724 267.091 160.128 266.174 160.171H187.002C186.085 160.13 185.222 159.726 184.6 159.049C183.979 158.372 183.651 157.476 183.687 156.557V108.143C183.652 107.224 183.981 106.329 184.602 105.652C185.223 104.975 186.086 104.571 187.002 104.528H232.564C233.279 104.51 233.97 104.264 234.537 103.827C235.104 103.39 235.519 102.784 235.72 102.096Z" fill="#6D6CD4"/>
<path opacity="0.12" d="M237.664 105.432L238.652 102.329C238.842 101.68 239.233 101.109 239.768 100.697C240.303 100.285 240.955 100.054 241.629 100.036H266.367C267.233 100.08 268.048 100.461 268.637 101.1C269.226 101.738 269.542 102.583 269.517 103.452V156.756C269.54 157.624 269.224 158.467 268.635 159.104C268.046 159.741 267.232 160.122 266.367 160.165H191.738C190.872 160.122 190.058 159.741 189.469 159.104C188.88 158.467 188.564 157.624 188.587 156.756V111.133C188.564 110.265 188.88 109.423 189.469 108.785C190.058 108.148 190.872 107.768 191.738 107.724H234.686C235.36 107.707 236.012 107.476 236.547 107.064C237.082 106.652 237.473 106.081 237.664 105.432Z" fill="white"/>
<path d="M260.471 156.091H240.887C240.711 156.091 240.542 156.021 240.418 155.897C240.293 155.772 240.224 155.603 240.224 155.427C240.224 155.251 240.293 155.082 240.418 154.957C240.542 154.833 240.711 154.763 240.887 154.763H260.471C261.078 154.763 261.661 154.521 262.091 154.091C262.521 153.662 262.764 153.079 262.765 152.47V136.882C262.765 136.705 262.835 136.536 262.96 136.412C263.084 136.287 263.253 136.217 263.429 136.217C263.604 136.217 263.773 136.287 263.898 136.412C264.022 136.536 264.092 136.705 264.092 136.882V152.45C264.094 152.928 264.001 153.401 263.82 153.843C263.639 154.284 263.372 154.686 263.036 155.024C262.699 155.362 262.3 155.631 261.86 155.814C261.419 155.997 260.947 156.091 260.471 156.091Z" fill="white"/>
<path d="M32.3331 148.497H62.3558C63.6822 148.497 64.8892 149.593 65.3335 151.228L66.3283 154.922C66.766 156.563 67.9597 157.66 69.306 157.66H112.254C113.992 157.66 115.404 159.48 115.404 161.726V216.213C115.404 218.459 113.992 220.28 112.254 220.28H32.3331C30.4762 220.28 28.9708 218.459 28.9708 216.213V152.57C29.0172 150.317 30.4961 148.497 32.3331 148.497Z" fill="#F28393"/>
<path opacity="0.12" d="M63.0057 158.231L61.9446 154.537C61.7832 153.797 61.3859 153.131 60.8127 152.638C60.2395 152.145 59.5217 151.853 58.7679 151.806H32.3331C30.4762 151.806 28.9708 153.626 28.9708 155.879V219.496C28.9708 221.741 30.4762 223.562 32.3331 223.562H112.042C113.899 223.562 115.404 221.741 115.404 219.496V165.009C115.404 162.763 113.899 160.942 112.042 160.942H66.1559C65.4098 160.889 64.7006 160.597 64.1332 160.109C63.5659 159.62 63.1705 158.962 63.0057 158.231Z" fill="white"/>
<path opacity="0.12" d="M61.0493 161.985L60.0545 158.504C59.9029 157.805 59.5282 157.176 58.9872 156.711C58.4462 156.246 57.7685 155.97 57.0569 155.925H32.1607C30.4099 155.925 28.9907 157.646 28.9907 159.766V219.728C28.9907 221.848 30.4099 223.562 32.1607 223.562H107.274C109.025 223.562 110.444 221.848 110.444 219.728V168.398C110.444 166.278 109.025 164.564 107.274 164.564H64.0469C63.3373 164.513 62.6629 164.235 62.1231 163.771C61.5833 163.306 61.2068 162.68 61.0493 161.985Z" fill="white"/>
<path d="M35.1185 171.873C34.9556 171.855 34.8051 171.777 34.6961 171.654C34.5871 171.531 34.5273 171.373 34.5283 171.208V161.985C34.499 161.422 34.6907 160.87 35.0625 160.446C35.4343 160.023 35.9566 159.762 36.5179 159.719H48.9129C49.0888 159.719 49.2575 159.789 49.3818 159.914C49.5062 160.039 49.5761 160.208 49.5761 160.384C49.5761 160.56 49.5062 160.729 49.3818 160.854C49.2575 160.978 49.0888 161.048 48.9129 161.048H36.551C36.3164 161.062 36.0967 161.168 35.9401 161.344C35.7835 161.52 35.7027 161.75 35.7154 161.985V171.208C35.7162 171.374 35.6555 171.533 35.5452 171.656C35.4348 171.779 35.2827 171.856 35.1185 171.873Z" fill="white"/>
<path d="M195.737 68.5737H110.51C96.3574 68.5737 84.8844 80.0689 84.8844 94.2489C84.8844 108.429 96.3574 119.924 110.51 119.924H195.737C209.889 119.924 221.362 108.429 221.362 94.2489C221.362 80.0689 209.889 68.5737 195.737 68.5737Z" fill="#C5D9FF"/>
<path d="M153.12 108.608C173.023 108.608 189.158 92.4423 189.158 72.5007C189.158 52.5591 173.023 36.3932 153.12 36.3932C133.217 36.3932 117.082 52.5591 117.082 72.5007C117.082 92.4423 133.217 108.608 153.12 108.608Z" fill="#599AF2"/>
<path d="M195.737 61.012H110.51C96.3574 61.012 84.8844 72.5072 84.8844 86.6872C84.8844 100.867 96.3574 112.362 110.51 112.362H195.737C209.889 112.362 221.362 100.867 221.362 86.6872C221.362 72.5072 209.889 61.012 195.737 61.012Z" fill="#599AF2"/>
<path d="M167.379 98.0988C185.658 90.2078 194.091 68.9645 186.215 50.6505C178.34 32.3366 157.137 23.8872 138.859 31.7782C120.58 39.6692 112.147 60.9125 120.023 79.2264C127.899 97.5404 149.101 105.99 167.379 98.0988Z" fill="#599AF2"/>
<g opacity="0.35">
<path d="M195.737 61.012H110.51C96.3574 61.012 84.8844 72.5072 84.8844 86.6872C84.8844 100.867 96.3574 112.362 110.51 112.362H195.737C209.889 112.362 221.362 100.867 221.362 86.6872C221.362 72.5072 209.889 61.012 195.737 61.012Z" fill="#ECF1F7"/>
<path d="M167.379 98.0988C185.658 90.2078 194.091 68.9645 186.215 50.6505C178.34 32.3366 157.137 23.8872 138.859 31.7782C120.58 39.6692 112.147 60.9125 120.023 79.2264C127.899 97.5404 149.101 105.99 167.379 98.0988Z" fill="#ECF1F7"/>
</g>
<path d="M144.698 70.3079C144.368 70.3085 144.047 70.2109 143.773 70.0276C143.499 69.8443 143.286 69.5835 143.161 69.2785C143.036 68.9735 143.004 68.6381 143.07 68.3149C143.136 67.9918 143.296 67.6955 143.53 67.464L153.206 57.9354L162.723 67.4773C163.025 67.791 163.191 68.2109 163.187 68.6464C163.182 69.082 163.008 69.4984 162.7 69.806C162.392 70.1136 161.976 70.2877 161.541 70.2908C161.106 70.294 160.688 70.1259 160.375 69.8229L153.186 62.62L145.891 69.8361C145.571 70.1457 145.142 70.3154 144.698 70.3079Z" fill="white"/>
<path d="M153.12 83.5243C152.68 83.5243 152.259 83.3493 151.948 83.0378C151.637 82.7262 151.462 82.3037 151.462 81.8631V60.2744C151.462 59.8338 151.637 59.4113 151.948 59.0997C152.259 58.7882 152.68 58.6132 153.12 58.6132C153.56 58.6132 153.982 58.7882 154.292 59.0997C154.603 59.4113 154.778 59.8338 154.778 60.2744V81.8631C154.778 82.3037 154.603 82.7262 154.292 83.0378C153.982 83.3493 153.56 83.5243 153.12 83.5243Z" fill="white"/>
<path d="M168.791 93.7705H137.203C136.115 93.7687 135.072 93.3348 134.303 92.5638C133.533 91.7929 133.1 90.7477 133.098 89.6574V78.1554C133.098 77.7148 133.273 77.2923 133.584 76.9807C133.895 76.6692 134.317 76.4942 134.756 76.4942C135.196 76.4942 135.618 76.6692 135.929 76.9807C136.24 77.2923 136.414 77.7148 136.414 78.1554V89.6574C136.414 89.8671 136.497 90.0682 136.645 90.2165C136.793 90.3648 136.994 90.4481 137.203 90.4481H168.791C168.928 90.449 169.063 90.4228 169.189 90.3711C169.315 90.3194 169.43 90.2432 169.527 90.1469C169.624 90.0505 169.701 89.936 169.753 89.8098C169.805 89.6836 169.832 89.5482 169.832 89.4115V78.1554C169.832 77.7148 170.007 77.2923 170.318 76.9807C170.629 76.6692 171.051 76.4942 171.49 76.4942C171.93 76.4942 172.352 76.6692 172.663 76.9807C172.974 77.2923 173.148 77.7148 173.148 78.1554V89.4115C173.147 90.5682 172.687 91.6769 171.87 92.4942C171.053 93.3115 169.946 93.7705 168.791 93.7705Z" fill="white"/>
<path opacity="0.36" d="M203.257 203.688L112.845 233.589C111.789 233.935 110.64 233.85 109.647 233.352C108.653 232.855 107.896 231.985 107.539 230.931L77.6954 140.343C77.3501 139.286 77.435 138.135 77.9316 137.139C78.4282 136.144 79.2966 135.385 80.3482 135.028L170.761 105.126C171.816 104.78 172.966 104.865 173.959 105.363C174.952 105.861 175.709 106.731 176.066 107.784L205.91 198.372C206.255 199.429 206.171 200.581 205.674 201.576C205.177 202.571 204.309 203.33 203.257 203.688Z" fill="#4C65BA"/>
<path d="M164.094 101.742L73.6848 131.665C71.4729 132.397 70.2721 134.787 71.0028 137.003L100.868 227.587C101.598 229.803 103.984 231.006 106.196 230.274L196.605 200.351C198.817 199.619 200.018 197.229 199.287 195.013L169.422 104.429C168.692 102.213 166.306 101.01 164.094 101.742Z" fill="white"/>
<path d="M162.423 111.606L80.7664 138.632L107.74 220.446L189.396 193.42L162.423 111.606Z" fill="#C5D9FF"/>
<path opacity="0.47" d="M107.061 221.13L100.953 202.605L109.887 181.029C110.475 179.594 111.58 178.432 112.982 177.773C114.385 177.115 115.983 177.008 117.46 177.474L134 182.624C134.474 182.772 134.983 182.756 135.446 182.579C135.909 182.402 136.299 182.073 136.554 181.647L150.321 158.683C151.748 156.32 153.978 154.553 156.602 153.707C159.225 152.86 162.066 152.992 164.6 154.078L179.767 160.61L179.906 161.035L190.604 193.475L189.655 193.787L107.061 221.13ZM103.082 202.684L108.335 218.632L188.097 192.226L178.149 162.112L163.811 155.925C161.718 155.03 159.373 154.922 157.208 155.622C155.042 156.321 153.202 157.781 152.026 159.733L138.251 182.69C137.769 183.501 137.029 184.125 136.149 184.461C135.269 184.797 134.302 184.827 133.403 184.544L116.87 179.408C115.867 179.091 114.781 179.162 113.828 179.609C112.875 180.056 112.124 180.845 111.724 181.82L103.082 202.684Z" fill="white"/>
<path opacity="0.47" d="M134.325 157.334C131.657 157.338 129.085 156.335 127.121 154.525C125.158 152.714 123.948 150.229 123.732 147.564C123.515 144.899 124.309 142.251 125.955 140.146C127.6 138.041 129.977 136.635 132.611 136.208C135.245 135.78 137.943 136.363 140.168 137.839C142.392 139.316 143.98 141.578 144.614 144.174C145.249 146.771 144.884 149.512 143.591 151.851C142.299 154.191 140.174 155.956 137.641 156.796C136.571 157.15 135.452 157.332 134.325 157.334ZM134.325 138.117C133.423 138.121 132.528 138.269 131.672 138.556C129.623 139.238 127.906 140.669 126.864 142.564C125.821 144.459 125.53 146.677 126.047 148.778C126.565 150.878 127.854 152.705 129.657 153.896C131.461 155.086 133.645 155.551 135.776 155.199C137.906 154.847 139.826 153.703 141.152 151.995C142.478 150.288 143.113 148.142 142.929 145.987C142.746 143.831 141.759 141.824 140.164 140.365C138.569 138.907 136.484 138.104 134.325 138.117Z" fill="white"/>
<path opacity="0.36" d="M230.468 140.828H159.891C157.562 140.828 155.673 142.721 155.673 145.055V215.768C155.673 218.102 157.562 219.994 159.891 219.994H230.468C232.797 219.994 234.686 218.102 234.686 215.768V145.055C234.686 142.721 232.797 140.828 230.468 140.828Z" fill="#4C65BA"/>
<path d="M226.462 136.815H155.886C153.556 136.815 151.668 138.707 151.668 141.041V211.754C151.668 214.088 153.556 215.98 155.886 215.98H226.462C228.792 215.98 230.68 214.088 230.68 211.754V141.041C230.68 138.707 228.792 136.815 226.462 136.815Z" fill="white"/>
<path opacity="0.39" d="M223.909 143.553H158.353V209.236H223.909V143.553Z" fill="#F7A9B4"/>
<path opacity="0.47" d="M224.99 209.808H157.444V194.611L169.116 181.069C169.923 180.131 171.051 179.53 172.278 179.382C173.505 179.235 174.743 179.552 175.748 180.272L186.492 187.96C186.756 188.15 187.076 188.246 187.401 188.231C187.726 188.217 188.036 188.093 188.282 187.88L203.728 174.557C205.369 173.153 207.46 172.389 209.618 172.406C211.776 172.424 213.855 173.22 215.473 174.65L224.97 183.082L224.99 209.808ZM159.434 207.814H223V183.979L214.173 176.139C212.916 175.028 211.3 174.409 209.623 174.397C207.946 174.385 206.322 174.98 205.048 176.072L189.602 189.362C189.02 189.868 188.284 190.163 187.513 190.198C186.743 190.233 185.983 190.006 185.358 189.554L174.614 181.866C174.01 181.436 173.268 181.246 172.532 181.335C171.796 181.423 171.12 181.783 170.635 182.345L159.434 195.355V207.814Z" fill="white"/>
<path opacity="0.47" d="M195.166 170.57C193.524 170.57 191.919 170.082 190.553 169.168C189.188 168.254 188.124 166.955 187.495 165.435C186.867 163.915 186.702 162.242 187.023 160.628C187.343 159.014 188.134 157.532 189.295 156.369C190.456 155.205 191.936 154.413 193.546 154.092C195.157 153.771 196.827 153.936 198.344 154.565C199.861 155.195 201.158 156.261 202.07 157.629C202.983 158.997 203.47 160.606 203.47 162.251C203.466 164.456 202.59 166.57 201.034 168.13C199.477 169.689 197.367 170.567 195.166 170.57ZM195.166 155.952C193.918 155.952 192.697 156.323 191.659 157.018C190.62 157.713 189.811 158.701 189.333 159.857C188.856 161.013 188.73 162.285 188.974 163.512C189.218 164.739 189.819 165.866 190.702 166.751C191.585 167.635 192.71 168.238 193.935 168.482C195.159 168.726 196.429 168.601 197.582 168.122C198.736 167.643 199.722 166.832 200.416 165.792C201.11 164.752 201.48 163.529 201.48 162.278C201.483 161.445 201.321 160.62 201.005 159.85C200.689 159.08 200.225 158.38 199.638 157.789C199.052 157.199 198.355 156.731 197.588 156.411C196.82 156.091 195.997 155.926 195.166 155.925V155.952Z" fill="white"/>
<path opacity="0.36" d="M162.18 178.893L122.285 193.87C120.103 194.688 118.998 197.124 119.815 199.31L134.763 239.282C135.58 241.467 138.011 242.575 140.192 241.756L180.087 226.78C182.269 225.961 183.375 223.525 182.557 221.34L167.609 181.367C166.792 179.182 164.361 178.074 162.18 178.893Z" fill="#4C65BA"/>
<path d="M158.841 177.371L118.946 192.348C116.765 193.167 115.659 195.603 116.477 197.788L131.424 237.76C132.242 239.946 134.673 241.054 136.854 240.235L176.749 225.258C178.93 224.439 180.036 222.004 179.219 219.818L164.271 179.846C163.454 177.66 161.023 176.552 158.841 177.371Z" fill="white"/>
<path d="M160.214 181.509L120.562 196.395L135.419 236.124L175.072 221.238L160.214 181.509Z" fill="#599AF2"/>
<path opacity="0.47" d="M134.796 237.131L131.188 227.482L135.234 216.519C135.538 215.681 136.146 214.989 136.936 214.58C137.725 214.17 138.64 214.072 139.498 214.306L147.728 216.519C147.855 216.553 147.989 216.543 148.109 216.491C148.23 216.439 148.329 216.348 148.392 216.233L154.725 204.671C155.441 203.374 156.599 202.38 157.988 201.87C159.377 201.359 160.902 201.368 162.285 201.894L170.084 204.897L176.312 221.542L134.796 237.131ZM133.317 227.482L135.97 234.566L173.772 220.379L168.559 206.425L161.596 203.767C160.663 203.412 159.633 203.406 158.697 203.751C157.76 204.095 156.978 204.766 156.496 205.641L150.162 217.203C149.887 217.712 149.448 218.112 148.918 218.34C148.387 218.568 147.795 218.61 147.238 218.459L139.001 216.246C138.623 216.141 138.219 216.183 137.871 216.365C137.522 216.546 137.256 216.853 137.124 217.223L133.317 227.482Z" fill="white"/>
<path opacity="0.47" d="M147.065 205.07C146.021 205.071 144.996 204.786 144.102 204.245C143.207 203.703 142.479 202.927 141.994 202C141.509 201.073 141.287 200.03 141.352 198.986C141.417 197.941 141.767 196.934 142.362 196.075C142.958 195.215 143.778 194.536 144.732 194.11C145.686 193.684 146.739 193.528 147.775 193.66C148.811 193.791 149.792 194.204 150.61 194.854C151.429 195.505 152.054 196.367 152.417 197.349C152.736 198.214 152.842 199.144 152.726 200.06C152.609 200.975 152.274 201.849 151.749 202.606C151.224 203.364 150.524 203.984 149.708 204.413C148.893 204.842 147.986 205.067 147.065 205.07ZM147.065 195.608C146.612 195.602 146.162 195.684 145.739 195.847C144.87 196.175 144.155 196.816 143.734 197.645C143.313 198.474 143.217 199.43 143.464 200.327C143.71 201.223 144.283 201.995 145.068 202.49C145.854 202.986 146.796 203.169 147.709 203.004C148.623 202.839 149.442 202.338 150.006 201.6C150.569 200.861 150.837 199.938 150.757 199.011C150.676 198.085 150.253 197.222 149.57 196.592C148.887 195.963 147.993 195.611 147.065 195.608Z" fill="white"/>
</g>
<defs>
<clipPath id="clip0_5_109">
<rect width="304" height="305" fill="white" transform="translate(0.5)"/>
</clipPath>
</defs>
</svg>
