<svg width="24" height="24" viewBox="0 0 24 24" fill="none" xmlns="http://www.w3.org/2000/svg">
<path d="M21.3749 5.08929C21.6249 5.33929 21.8392 5.67857 22.0178 6.10714C22.1964 6.53571 22.2857 6.92857 22.2857 7.28571V22.7143C22.2857 23.0714 22.1607 23.375 21.9107 23.625C21.6607 23.875 21.3571 24 20.9999 24H2.99995C2.6428 24 2.33923 23.875 2.08923 23.625C1.83923 23.375 1.71423 23.0714 1.71423 22.7143V1.28571C1.71423 0.928571 1.83923 0.625 2.08923 0.375C2.33923 0.125 2.6428 0 2.99995 0H14.9999C15.3571 0 15.7499 0.0892857 16.1785 0.267857C16.6071 0.446429 16.9464 0.660714 17.1964 0.910714L21.3749 5.08929ZM15.4285 1.82143V6.85714H20.4642C20.3749 6.59821 20.2767 6.41518 20.1696 6.30804L15.9776 2.11607C15.8705 2.00893 15.6874 1.91071 15.4285 1.82143ZM20.5714 22.2857V8.57143H14.9999C14.6428 8.57143 14.3392 8.44643 14.0892 8.19643C13.8392 7.94643 13.7142 7.64286 13.7142 7.28571V1.71429H3.42852V22.2857H20.5714ZM18.8571 16.2857V20.5714H5.1428V18L7.71423 15.4286L9.42852 17.1429L14.5714 12L18.8571 16.2857ZM7.71423 13.7143C6.99995 13.7143 6.3928 13.4643 5.89281 12.9643C5.3928 12.4643 5.1428 11.8571 5.1428 11.1429C5.1428 10.4286 5.3928 9.82143 5.89281 9.32143C6.3928 8.82143 6.99995 8.57143 7.71423 8.57143C8.42852 8.57143 9.03566 8.82143 9.53566 9.32143C10.0357 9.82143 10.2857 10.4286 10.2857 11.1429C10.2857 11.8571 10.0357 12.4643 9.53566 12.9643C9.03566 13.4643 8.42852 13.7143 7.71423 13.7143Z" fill="black"/>
</svg>
