<svg width="32" height="32" viewBox="0 0 32 32" fill="none" xmlns="http://www.w3.org/2000/svg">
<path fill-rule="evenodd" clip-rule="evenodd" d="M3.19991 30.4C2.31751 30.4 1.59991 29.6824 1.59991 28.8V3.19998C1.59991 2.31758 2.31751 1.59998 3.19991 1.59998H28.7999C29.6823 1.59998 30.3999 2.31758 30.3999 3.19998V28.8C30.3999 29.6824 29.6823 30.4 28.7999 30.4H3.19991Z" fill="#D57A47"/>
<path fill-rule="evenodd" clip-rule="evenodd" d="M28.8 0H3.2C2.35131 0 1.53737 0.337142 0.937258 0.937258C0.337142 1.53737 0 2.35131 0 3.2V28.8C0 29.6487 0.337142 30.4626 0.937258 31.0627C1.53737 31.6629 2.35131 32 3.2 32H28.8C29.6487 32 30.4626 31.6629 31.0627 31.0627C31.6629 30.4626 32 29.6487 32 28.8V3.2C32 2.35131 31.6629 1.53737 31.0627 0.937258C30.4626 0.337142 29.6487 0 28.8 0ZM3.2 28.8H28.8V3.2H3.2V28.8Z" fill="#FFFFFE"/>
<path fill-rule="evenodd" clip-rule="evenodd" d="M3.19983 28.8H28.7998V25.6H3.19983V28.8Z" fill="#FFFFFE"/>
<path fill-rule="evenodd" clip-rule="evenodd" d="M1.59198 25.6H29.508V23.2632C29.508 23.2632 28.144 20.8816 26.8792 19.3888C25.9384 18.2792 24.5336 17.9648 23.308 19.3288L21.1064 21.4432L16.3072 15.34C14.52 13.0672 11.5952 13.0672 9.80798 15.34L1.59198 25.6Z" fill="#4C5665"/>
<path fill-rule="evenodd" clip-rule="evenodd" d="M24.8 9.60004C24.8 10.2366 24.5471 10.847 24.0971 11.2971C23.647 11.7472 23.0365 12 22.4 12C21.7635 12 21.153 11.7472 20.7029 11.2971C20.2529 10.847 20 10.2366 20 9.60004C20 8.96352 20.2529 8.35307 20.7029 7.90299C21.153 7.4529 21.7635 7.20004 22.4 7.20004C23.0365 7.20004 23.647 7.4529 24.0971 7.90299C24.5471 8.35307 24.8 8.96352 24.8 9.60004Z" fill="#F0CB83"/>
<path fill-rule="evenodd" clip-rule="evenodd" d="M28.8 0H3.2C2.35131 0 1.53737 0.337142 0.937258 0.937258C0.337142 1.53737 0 2.35131 0 3.2V28.8C0 29.6487 0.337142 30.4626 0.937258 31.0627C1.53737 31.6629 2.35131 32 3.2 32H28.8C29.6487 32 30.4626 31.6629 31.0627 31.0627C31.6629 30.4626 32 29.6487 32 28.8V3.2C32 2.35131 31.6629 1.53737 31.0627 0.937258C30.4626 0.337142 29.6487 0 28.8 0ZM3.2 28.8H28.8V3.2H3.2V28.8Z" fill="#FFFFFE"/>
</svg>
