<svg width="70" height="84" viewBox="0 0 70 84" fill="none" xmlns="http://www.w3.org/2000/svg">
<g filter="url(#filter0_dd_12_55)">
<path fill-rule="evenodd" clip-rule="evenodd" d="M35 67C48.8071 67 60 55.8071 60 42C60 28.1929 48.8071 17 35 17C21.1929 17 10 28.1929 10 42C10 55.8071 21.1929 67 35 67Z" fill="white"/>
<path d="M58.5 42C58.5 54.9787 47.9787 65.5 35 65.5C22.0213 65.5 11.5 54.9787 11.5 42C11.5 29.0213 22.0213 18.5 35 18.5C47.9787 18.5 58.5 29.0213 58.5 42Z" stroke="white" stroke-width="3"/>
</g>
<path d="M42.2857 37.3493C41.75 37.6192 41.2143 37.7092 40.5893 37.7991C41.2143 37.4393 41.6607 36.8996 41.8393 36.1799C41.3036 36.5397 40.6786 36.7197 39.9643 36.8996C39.4286 36.3598 38.625 36 37.8214 36C36.3036 36 34.9643 37.3493 34.9643 38.9686C34.9643 39.2384 34.9643 39.4183 35.0536 39.5983C32.6429 39.5083 30.4107 38.3389 28.9821 36.5397C28.7143 36.9895 28.625 37.4393 28.625 38.069C28.625 39.0585 29.1607 39.9581 29.9643 40.4978C29.5179 40.4978 29.0714 40.3179 28.625 40.138C28.625 41.5773 29.6071 42.7467 30.9464 43.0166C30.6786 43.1066 30.4107 43.1066 30.1429 43.1066C29.9643 43.1066 29.7857 43.1066 29.6071 43.0166C29.9643 44.186 31.0357 45.0856 32.375 45.0856C31.3929 45.8952 30.1429 46.345 28.7143 46.345C28.4464 46.345 28.2679 46.345 28 46.345C29.3393 47.1546 30.8571 47.6943 32.4643 47.6943C37.8214 47.6943 40.7679 43.1965 40.7679 39.3284C40.7679 39.2384 40.7679 39.0585 40.7679 38.9686C41.3929 38.5188 41.9286 37.979 42.2857 37.3493Z" fill="#0A142F"/>
<defs>
<filter id="filter0_dd_12_55" x="0" y="0" width="70" height="84" filterUnits="userSpaceOnUse" color-interpolation-filters="sRGB">
<feFlood flood-opacity="0" result="BackgroundImageFix"/>
<feColorMatrix in="SourceAlpha" type="matrix" values="0 0 0 0 0 0 0 0 0 0 0 0 0 0 0 0 0 0 127 0" result="hardAlpha"/>
<feOffset dy="7"/>
<feGaussianBlur stdDeviation="5"/>
<feColorMatrix type="matrix" values="0 0 0 0 0.294118 0 0 0 0 0.294118 0 0 0 0 0.294118 0 0 0 0.1 0"/>
<feBlend mode="normal" in2="BackgroundImageFix" result="effect1_dropShadow_12_55"/>
<feColorMatrix in="SourceAlpha" type="matrix" values="0 0 0 0 0 0 0 0 0 0 0 0 0 0 0 0 0 0 127 0" result="hardAlpha"/>
<feOffset dy="-7"/>
<feGaussianBlur stdDeviation="5"/>
<feColorMatrix type="matrix" values="0 0 0 0 0.294118 0 0 0 0 0.294118 0 0 0 0 0.294118 0 0 0 0.01 0"/>
<feBlend mode="normal" in2="effect1_dropShadow_12_55" result="effect2_dropShadow_12_55"/>
<feBlend mode="normal" in="SourceGraphic" in2="effect2_dropShadow_12_55" result="shape"/>
</filter>
</defs>
</svg>
